<?xml version="1.0" encoding="UTF-8" standalone="no"?>
<!DOCTYPE svg PUBLIC "-//W3C//DTD SVG 1.1//EN"
 "http://www.w3.org/Graphics/SVG/1.1/DTD/svg11.dtd">
<!-- Generated by graphviz version 14.1.3 (20260303.0454)
 -->
<!-- Title: urn:temp#graph Pages: 1 -->
<svg width="463px" height="429px"
 viewBox="0.00 0.00 463.00 429.00" xmlns="http://www.w3.org/2000/svg" xmlns:xlink="http://www.w3.org/1999/xlink">
<g id="graph0" class="graph" transform="scale(1.0 1.0) rotate(0.0) translate(4.0 425.25)">
<title>urn:temp#graph</title>
<polygon fill="white" stroke="none" points="-4,4 -4,-425.25 459,-425.25 459,4 -4,4"/>
<!-- Graphviz
software -->
<g id="node1" class="node">
<title>Graphviz
software</title>
<path fill="lemonchiffon" stroke="black" d="M246.33,-367.5C246.33,-367.5 161.42,-367.5 161.42,-367.5 156.33,-367.5 151.25,-362.42 151.25,-357.33 151.25,-357.33 151.25,-347.17 151.25,-347.17 151.25,-342.08 156.33,-337 161.42,-337 161.42,-337 246.33,-337 246.33,-337 251.42,-337 256.5,-342.08 256.5,-347.17 256.5,-347.17 256.5,-357.33 256.5,-357.33 256.5,-362.42 251.42,-367.5 246.33,-367.5"/>
<text xml:space="preserve" text-anchor="middle" x="203.88" y="-354" font-family="Times" font-size="10.00">Graphviz</text>
<text xml:space="preserve" text-anchor="middle" x="203.88" y="-342.75" font-family="Times" font-size="10.00">software^^xsd:string</text>
</g>
<!-- http://example.com/ns#Graphviz -->
<g id="node2" class="node">
<title>http://example.com/ns#Graphviz</title>
<g id="a_node2"><a xlink:href="http://example.com/ns#Graphviz" xlink:title="ex:Process&#10;ex:Graphviz">
<polygon fill="lightskyblue" stroke="black" points="76.75,-368.25 8.25,-368.25 8.25,-336.25 76.75,-336.25 76.75,-368.25"/>
<text xml:space="preserve" text-anchor="middle" x="42.5" y="-354.75" font-family="Arial" font-size="10.00">ex:Process</text>
<text xml:space="preserve" text-anchor="middle" x="42.5" y="-342.75" font-family="Arial" font-size="10.00">ex:Graphviz</text>
</a>
</g>
</g>
<!-- http://example.com/ns#Graphviz&#45;&gt;Graphviz
software -->
<g id="edge3" class="edge">
<title>http://example.com/ns#Graphviz&#45;&gt;Graphviz
software</title>
<path fill="none" stroke="black" d="M76.91,-352.25C95.09,-352.25 118.19,-352.25 139.63,-352.25"/>
<polygon fill="black" stroke="black" points="139.48,-355.75 149.48,-352.25 139.48,-348.75 139.48,-355.75"/>
<text xml:space="preserve" text-anchor="middle" x="115.88" y="-354.75" font-family="Arial" font-size="10.00">rdfs:label</text>
</g>
<!-- http://example.com/ns#Dot -->
<g id="node7" class="node">
<title>http://example.com/ns#Dot</title>
<g id="a_node7"><a xlink:href="http://example.com/ns#Dot" xlink:title="ex:Data, ex:Output&#10;ex:Dot">
<polygon fill="lightskyblue" stroke="black" points="253.5,-313.25 154.25,-313.25 154.25,-281.25 253.5,-281.25 253.5,-313.25"/>
<text xml:space="preserve" text-anchor="middle" x="203.88" y="-299.75" font-family="Arial" font-size="10.00">ex:Data, ex:Output</text>
<text xml:space="preserve" text-anchor="middle" x="203.88" y="-287.75" font-family="Arial" font-size="10.00">ex:Dot</text>
</a>
</g>
</g>
<!-- http://example.com/ns#Graphviz&#45;&gt;http://example.com/ns#Dot -->
<g id="edge2" class="edge">
<title>http://example.com/ns#Graphviz&#45;&gt;http://example.com/ns#Dot</title>
<path fill="none" stroke="black" d="M76.91,-340.72C96.53,-333.95 121.88,-325.2 144.69,-317.33"/>
<polygon fill="black" stroke="black" points="145.56,-320.73 153.87,-314.16 143.28,-314.12 145.56,-320.73"/>
<text xml:space="preserve" text-anchor="middle" x="115.88" y="-335.39" font-family="Arial" font-size="10.00">ex:in</text>
</g>
<!-- http://example.com/ns#Image -->
<g id="node16" class="node">
<title>http://example.com/ns#Image</title>
<g id="a_node16"><a xlink:href="http://example.com/ns#Image" xlink:title="ex:Data, ex:Output&#10;ex:Image">
<polygon fill="lightskyblue" stroke="black" points="253.5,-421.25 154.25,-421.25 154.25,-389.25 253.5,-389.25 253.5,-421.25"/>
<text xml:space="preserve" text-anchor="middle" x="203.88" y="-407.75" font-family="Arial" font-size="10.00">ex:Data, ex:Output</text>
<text xml:space="preserve" text-anchor="middle" x="203.88" y="-395.75" font-family="Arial" font-size="10.00">ex:Image</text>
</a>
</g>
</g>
<!-- http://example.com/ns#Graphviz&#45;&gt;http://example.com/ns#Image -->
<g id="edge1" class="edge">
<title>http://example.com/ns#Graphviz&#45;&gt;http://example.com/ns#Image</title>
<path fill="none" stroke="black" d="M76.91,-363.36C96.05,-369.73 120.64,-377.9 143.01,-385.34"/>
<polygon fill="black" stroke="black" points="141.74,-388.61 152.34,-388.44 143.95,-381.97 141.74,-388.61"/>
<text xml:space="preserve" text-anchor="middle" x="115.88" y="-384.42" font-family="Arial" font-size="10.00">ex:out</text>
</g>
<!-- RDFVizler
saturated RDF -->
<g id="node3" class="node">
<title>RDFVizler
saturated RDF</title>
<path fill="lemonchiffon" stroke="black" d="M444.83,-191.5C444.83,-191.5 332.92,-191.5 332.92,-191.5 327.83,-191.5 322.75,-186.42 322.75,-181.33 322.75,-181.33 322.75,-171.17 322.75,-171.17 322.75,-166.08 327.83,-161 332.92,-161 332.92,-161 444.83,-161 444.83,-161 449.92,-161 455,-166.08 455,-171.17 455,-171.17 455,-181.33 455,-181.33 455,-186.42 449.92,-191.5 444.83,-191.5"/>
<text xml:space="preserve" text-anchor="middle" x="388.88" y="-178" font-family="Times" font-size="10.00">RDFVizler</text>
<text xml:space="preserve" text-anchor="middle" x="388.88" y="-166.75" font-family="Times" font-size="10.00">saturated RDF^^xsd:string</text>
</g>
<!-- RDFVizler&#39;s
RDF to Dot
parser -->
<g id="node4" class="node">
<title>RDFVizler&#39;s
RDF to Dot
parser</title>
<path fill="lemonchiffon" stroke="black" d="M239.25,-256.12C239.25,-256.12 168.5,-256.12 168.5,-256.12 162.5,-256.12 156.5,-250.12 156.5,-244.12 156.5,-244.12 156.5,-226.38 156.5,-226.38 156.5,-220.38 162.5,-214.38 168.5,-214.38 168.5,-214.38 239.25,-214.38 239.25,-214.38 245.25,-214.38 251.25,-220.38 251.25,-226.38 251.25,-226.38 251.25,-244.12 251.25,-244.12 251.25,-250.12 245.25,-256.12 239.25,-256.12"/>
<text xml:space="preserve" text-anchor="middle" x="203.88" y="-242.62" font-family="Times" font-size="10.00">RDFVizler&#39;s</text>
<text xml:space="preserve" text-anchor="middle" x="203.88" y="-231.38" font-family="Times" font-size="10.00">RDF to Dot</text>
<text xml:space="preserve" text-anchor="middle" x="203.88" y="-220.12" font-family="Times" font-size="10.00">parser^^xsd:string</text>
</g>
<!-- http://example.com/ns#Parser -->
<g id="node5" class="node">
<title>http://example.com/ns#Parser</title>
<g id="a_node5"><a xlink:href="http://example.com/ns#Parser" xlink:title="ex:Process&#10;ex:Parser">
<polygon fill="lightskyblue" stroke="black" points="75.25,-251.25 9.75,-251.25 9.75,-219.25 75.25,-219.25 75.25,-251.25"/>
<text xml:space="preserve" text-anchor="middle" x="42.5" y="-237.75" font-family="Arial" font-size="10.00">ex:Process</text>
<text xml:space="preserve" text-anchor="middle" x="42.5" y="-225.75" font-family="Arial" font-size="10.00">ex:Parser</text>
</a>
</g>
</g>
<!-- http://example.com/ns#Parser&#45;&gt;RDFVizler&#39;s
RDF to Dot
parser -->
<g id="edge7" class="edge">
<title>http://example.com/ns#Parser&#45;&gt;RDFVizler&#39;s
RDF to Dot
parser</title>
<path fill="none" stroke="black" d="M75.37,-235.25C95.28,-235.25 121.5,-235.25 144.99,-235.25"/>
<polygon fill="black" stroke="black" points="144.74,-238.75 154.74,-235.25 144.74,-231.75 144.74,-238.75"/>
<text xml:space="preserve" text-anchor="middle" x="115.88" y="-237.75" font-family="Arial" font-size="10.00">rdfs:label</text>
</g>
<!-- http://example.com/ns#Parser&#45;&gt;http://example.com/ns#Dot -->
<g id="edge5" class="edge">
<title>http://example.com/ns#Parser&#45;&gt;http://example.com/ns#Dot</title>
<path fill="none" stroke="black" d="M75.37,-247.65C96.65,-255.93 125.16,-267.02 149.83,-276.61"/>
<polygon fill="black" stroke="black" points="148.49,-279.85 159.08,-280.21 151.03,-273.32 148.49,-279.85"/>
<text xml:space="preserve" text-anchor="middle" x="115.88" y="-272.46" font-family="Arial" font-size="10.00">ex:out</text>
</g>
<!-- http://example.com/ns#RDFVizlerRDF -->
<g id="node8" class="node">
<title>http://example.com/ns#RDFVizlerRDF</title>
<g id="a_node8"><a xlink:href="http://example.com/ns#RDFVizlerRDF" xlink:title="ex:Data, ex:Output&#10;ex:RDFVizlerRDF">
<polygon fill="lightskyblue" stroke="black" points="253.5,-192.25 154.25,-192.25 154.25,-160.25 253.5,-160.25 253.5,-192.25"/>
<text xml:space="preserve" text-anchor="middle" x="203.88" y="-178.75" font-family="Arial" font-size="10.00">ex:Data, ex:Output</text>
<text xml:space="preserve" text-anchor="middle" x="203.88" y="-166.75" font-family="Arial" font-size="10.00">ex:RDFVizlerRDF</text>
</a>
</g>
</g>
<!-- http://example.com/ns#Parser&#45;&gt;http://example.com/ns#RDFVizlerRDF -->
<g id="edge6" class="edge">
<title>http://example.com/ns#Parser&#45;&gt;http://example.com/ns#RDFVizlerRDF</title>
<path fill="none" stroke="black" d="M75.37,-223.45C96.1,-215.78 123.69,-205.57 147.89,-196.6"/>
<polygon fill="black" stroke="black" points="148.8,-200 156.97,-193.25 146.37,-193.43 148.8,-200"/>
<text xml:space="preserve" text-anchor="middle" x="115.88" y="-216.98" font-family="Arial" font-size="10.00">ex:in</text>
</g>
<!-- DOT syntax -->
<g id="node6" class="node">
<title>DOT syntax</title>
<path fill="lemonchiffon" stroke="black" d="M442.96,-306.88C442.96,-306.88 334.79,-306.88 334.79,-306.88 331.58,-306.88 328.38,-303.67 328.38,-300.46 328.38,-300.46 328.38,-294.04 328.38,-294.04 328.38,-290.83 331.58,-287.62 334.79,-287.62 334.79,-287.62 442.96,-287.62 442.96,-287.62 446.17,-287.62 449.38,-290.83 449.38,-294.04 449.38,-294.04 449.38,-300.46 449.38,-300.46 449.38,-303.67 446.17,-306.88 442.96,-306.88"/>
<text xml:space="preserve" text-anchor="middle" x="388.88" y="-293.38" font-family="Times" font-size="10.00">DOT syntax^^xsd:string</text>
</g>
<!-- http://example.com/ns#Dot&#45;&gt;DOT syntax -->
<g id="edge8" class="edge">
<title>http://example.com/ns#Dot&#45;&gt;DOT syntax</title>
<path fill="none" stroke="black" d="M253.92,-297.25C273.12,-297.25 295.53,-297.25 316.47,-297.25"/>
<polygon fill="black" stroke="black" points="316.41,-300.75 326.41,-297.25 316.41,-293.75 316.41,-300.75"/>
<text xml:space="preserve" text-anchor="middle" x="291.88" y="-299.75" font-family="Arial" font-size="10.00">rdfs:label</text>
</g>
<!-- http://example.com/ns#RDFVizlerRDF&#45;&gt;RDFVizler
saturated RDF -->
<g id="edge4" class="edge">
<title>http://example.com/ns#RDFVizlerRDF&#45;&gt;RDFVizler
saturated RDF</title>
<path fill="none" stroke="black" d="M253.92,-176.25C271.53,-176.25 291.84,-176.25 311.23,-176.25"/>
<polygon fill="black" stroke="black" points="311,-179.75 321,-176.25 311,-172.75 311,-179.75"/>
<text xml:space="preserve" text-anchor="middle" x="291.88" y="-178.75" font-family="Arial" font-size="10.00">rdfs:label</text>
</g>
<!-- Jena Rules
application -->
<g id="node9" class="node">
<title>Jena Rules
application</title>
<path fill="lemonchiffon" stroke="black" d="M250.83,-30.5C250.83,-30.5 156.92,-30.5 156.92,-30.5 151.83,-30.5 146.75,-25.42 146.75,-20.33 146.75,-20.33 146.75,-10.17 146.75,-10.17 146.75,-5.08 151.83,0 156.92,0 156.92,0 250.83,0 250.83,0 255.92,0 261,-5.08 261,-10.17 261,-10.17 261,-20.33 261,-20.33 261,-25.42 255.92,-30.5 250.83,-30.5"/>
<text xml:space="preserve" text-anchor="middle" x="203.88" y="-17" font-family="Times" font-size="10.00">Jena Rules</text>
<text xml:space="preserve" text-anchor="middle" x="203.88" y="-5.75" font-family="Times" font-size="10.00">application^^xsd:string</text>
</g>
<!-- http://example.com/ns#RulesEngine -->
<g id="node10" class="node">
<title>http://example.com/ns#RulesEngine</title>
<g id="a_node10"><a xlink:href="http://example.com/ns#RulesEngine" xlink:title="ex:Process&#10;ex:RulesEngine">
<polygon fill="lightskyblue" stroke="black" points="85,-100.25 0,-100.25 0,-68.25 85,-68.25 85,-100.25"/>
<text xml:space="preserve" text-anchor="middle" x="42.5" y="-86.75" font-family="Arial" font-size="10.00">ex:Process</text>
<text xml:space="preserve" text-anchor="middle" x="42.5" y="-74.75" font-family="Arial" font-size="10.00">ex:RulesEngine</text>
</a>
</g>
</g>
<!-- http://example.com/ns#RulesEngine&#45;&gt;http://example.com/ns#RDFVizlerRDF -->
<g id="edge9" class="edge">
<title>http://example.com/ns#RulesEngine&#45;&gt;http://example.com/ns#RDFVizlerRDF</title>
<path fill="none" stroke="black" d="M64.75,-100.65C74.13,-107.62 85.4,-115.64 96,-122.25 117.68,-135.77 123.96,-137.71 146.75,-149.25 150.39,-151.09 154.17,-152.98 157.98,-154.85"/>
<polygon fill="black" stroke="black" points="156.16,-157.86 166.68,-159.1 159.23,-151.57 156.16,-157.86"/>
<text xml:space="preserve" text-anchor="middle" x="115.88" y="-145.81" font-family="Arial" font-size="10.00">ex:out</text>
</g>
<!-- http://example.com/ns#RulesEngine&#45;&gt;Jena Rules
application -->
<g id="edge12" class="edge">
<title>http://example.com/ns#RulesEngine&#45;&gt;Jena Rules
application</title>
<path fill="none" stroke="black" d="M66.01,-67.85C75.03,-61.77 85.71,-55.16 96,-50.25 108.51,-44.27 122.31,-38.92 135.71,-34.3"/>
<polygon fill="black" stroke="black" points="136.52,-37.72 144.91,-31.24 134.31,-31.08 136.52,-37.72"/>
<text xml:space="preserve" text-anchor="middle" x="115.88" y="-52.75" font-family="Arial" font-size="10.00">rdfs:label</text>
</g>
<!-- http://example.com/ns#Rules -->
<g id="node12" class="node">
<title>http://example.com/ns#Rules</title>
<g id="a_node12"><a xlink:href="http://example.com/ns#Rules" xlink:title="ex:Data, ex:Input&#10;ex:Rules">
<polygon fill="lightskyblue" stroke="black" points="249.75,-138.25 158,-138.25 158,-106.25 249.75,-106.25 249.75,-138.25"/>
<text xml:space="preserve" text-anchor="middle" x="203.88" y="-124.75" font-family="Arial" font-size="10.00">ex:Data, ex:Input</text>
<text xml:space="preserve" text-anchor="middle" x="203.88" y="-112.75" font-family="Arial" font-size="10.00">ex:Rules</text>
</a>
</g>
</g>
<!-- http://example.com/ns#RulesEngine&#45;&gt;http://example.com/ns#Rules -->
<g id="edge10" class="edge">
<title>http://example.com/ns#RulesEngine&#45;&gt;http://example.com/ns#Rules</title>
<path fill="none" stroke="black" d="M85.37,-94.23C104.13,-98.71 126.52,-104.04 146.7,-108.86"/>
<polygon fill="black" stroke="black" points="145.64,-112.2 156.18,-111.12 147.26,-105.39 145.64,-112.2"/>
<text xml:space="preserve" text-anchor="middle" x="115.88" y="-108.03" font-family="Arial" font-size="10.00">ex:in</text>
</g>
<!-- http://example.com/ns#RDF -->
<g id="node14" class="node">
<title>http://example.com/ns#RDF</title>
<g id="a_node14"><a xlink:href="http://example.com/ns#RDF" xlink:title="ex:Data, ex:Input&#10;ex:RDF">
<polygon fill="lightskyblue" stroke="black" points="249.75,-84.25 158,-84.25 158,-52.25 249.75,-52.25 249.75,-84.25"/>
<text xml:space="preserve" text-anchor="middle" x="203.88" y="-70.75" font-family="Arial" font-size="10.00">ex:Data, ex:Input</text>
<text xml:space="preserve" text-anchor="middle" x="203.88" y="-58.75" font-family="Arial" font-size="10.00">ex:RDF</text>
</a>
</g>
</g>
<!-- http://example.com/ns#RulesEngine&#45;&gt;http://example.com/ns#RDF -->
<g id="edge11" class="edge">
<title>http://example.com/ns#RulesEngine&#45;&gt;http://example.com/ns#RDF</title>
<path fill="none" stroke="black" d="M85.44,-72.11C88.99,-71.37 92.54,-70.74 96,-70.25 112.35,-67.95 130.24,-67.01 146.63,-66.76"/>
<polygon fill="black" stroke="black" points="146.21,-70.26 156.19,-66.7 146.17,-63.26 146.21,-70.26"/>
<text xml:space="preserve" text-anchor="middle" x="115.88" y="-72.75" font-family="Arial" font-size="10.00">ex:in</text>
</g>
<!-- Jena Rules -->
<g id="node11" class="node">
<title>Jena Rules</title>
<path fill="lemonchiffon" stroke="black" d="M441.08,-131.88C441.08,-131.88 336.67,-131.88 336.67,-131.88 333.46,-131.88 330.25,-128.67 330.25,-125.46 330.25,-125.46 330.25,-119.04 330.25,-119.04 330.25,-115.83 333.46,-112.62 336.67,-112.62 336.67,-112.62 441.08,-112.62 441.08,-112.62 444.29,-112.62 447.5,-115.83 447.5,-119.04 447.5,-119.04 447.5,-125.46 447.5,-125.46 447.5,-128.67 444.29,-131.88 441.08,-131.88"/>
<text xml:space="preserve" text-anchor="middle" x="388.88" y="-118.38" font-family="Times" font-size="10.00">Jena Rules^^xsd:string</text>
</g>
<!-- http://example.com/ns#Rules&#45;&gt;Jena Rules -->
<g id="edge13" class="edge">
<title>http://example.com/ns#Rules&#45;&gt;Jena Rules</title>
<path fill="none" stroke="black" d="M250.11,-122.25C270.76,-122.25 295.66,-122.25 318.59,-122.25"/>
<polygon fill="black" stroke="black" points="318.5,-125.75 328.5,-122.25 318.5,-118.75 318.5,-125.75"/>
<text xml:space="preserve" text-anchor="middle" x="291.88" y="-124.75" font-family="Arial" font-size="10.00">rdfs:label</text>
</g>
<!-- RDF data -->
<g id="node13" class="node">
<title>RDF data</title>
<path fill="lemonchiffon" stroke="black" d="M437.71,-77.88C437.71,-77.88 340.04,-77.88 340.04,-77.88 336.83,-77.88 333.62,-74.67 333.62,-71.46 333.62,-71.46 333.62,-65.04 333.62,-65.04 333.62,-61.83 336.83,-58.62 340.04,-58.62 340.04,-58.62 437.71,-58.62 437.71,-58.62 440.92,-58.62 444.12,-61.83 444.12,-65.04 444.12,-65.04 444.12,-71.46 444.12,-71.46 444.12,-74.67 440.92,-77.88 437.71,-77.88"/>
<text xml:space="preserve" text-anchor="middle" x="388.88" y="-64.38" font-family="Times" font-size="10.00">RDF data^^xsd:string</text>
</g>
<!-- http://example.com/ns#RDF&#45;&gt;RDF data -->
<g id="edge14" class="edge">
<title>http://example.com/ns#RDF&#45;&gt;RDF data</title>
<path fill="none" stroke="black" d="M250.11,-68.25C271.76,-68.25 298.1,-68.25 321.92,-68.25"/>
<polygon fill="black" stroke="black" points="321.87,-71.75 331.87,-68.25 321.87,-64.75 321.87,-71.75"/>
<text xml:space="preserve" text-anchor="middle" x="291.88" y="-70.75" font-family="Arial" font-size="10.00">rdfs:label</text>
</g>
<!-- Image -->
<g id="node15" class="node">
<title>Image</title>
<path fill="lemonchiffon" stroke="black" d="M429.83,-414.88C429.83,-414.88 347.92,-414.88 347.92,-414.88 344.71,-414.88 341.5,-411.67 341.5,-408.46 341.5,-408.46 341.5,-402.04 341.5,-402.04 341.5,-398.83 344.71,-395.62 347.92,-395.62 347.92,-395.62 429.83,-395.62 429.83,-395.62 433.04,-395.62 436.25,-398.83 436.25,-402.04 436.25,-402.04 436.25,-408.46 436.25,-408.46 436.25,-411.67 433.04,-414.88 429.83,-414.88"/>
<text xml:space="preserve" text-anchor="middle" x="388.88" y="-401.38" font-family="Times" font-size="10.00">Image^^xsd:string</text>
</g>
<!-- http://example.com/ns#Image&#45;&gt;Image -->
<g id="edge15" class="edge">
<title>http://example.com/ns#Image&#45;&gt;Image</title>
<path fill="none" stroke="black" d="M253.92,-405.25C277.31,-405.25 305.47,-405.25 329.92,-405.25"/>
<polygon fill="black" stroke="black" points="329.71,-408.75 339.71,-405.25 329.71,-401.75 329.71,-408.75"/>
<text xml:space="preserve" text-anchor="middle" x="291.88" y="-407.75" font-family="Arial" font-size="10.00">rdfs:label</text>
</g>
</g>
</svg>

