<?xml version="1.0" encoding="UTF-8" standalone="no"?>
<!DOCTYPE svg PUBLIC "-//W3C//DTD SVG 1.1//EN"
 "http://www.w3.org/Graphics/SVG/1.1/DTD/svg11.dtd">
<!-- Generated by graphviz version 2.38.0 (20140413.2041)
 -->
<!-- Title: urn:temp#graph Pages: 1 -->
<svg width="462pt" height="417pt"
 viewBox="0.00 0.00 462.00 417.00" xmlns="http://www.w3.org/2000/svg" xmlns:xlink="http://www.w3.org/1999/xlink">
<g id="graph0" class="graph" transform="scale(1 1) rotate(0) translate(4 413)">
<title>urn:temp#graph</title>
<polygon fill="white" stroke="none" points="-4,4 -4,-413 458,-413 458,4 -4,4"/>
<!-- http://example.com/ns#Image -->
<g id="node1" class="node"><title>http://example.com/ns#Image</title>
<g id="a_node1"><a xlink:href="http://example.com/ns#Image" xlink:title="ex:Data, ex:Output
&quot;ex:Image&quot;">
<polygon fill="lightskyblue" stroke="black" points="260,-357 161,-357 161,-327 260,-327 260,-357"/>
<text text-anchor="middle" x="210.5" y="-345" font-family="Arial" font-size="10.00">ex:Data, ex:Output</text>
<text text-anchor="middle" x="210.5" y="-334" font-family="Arial" font-size="10.00">&quot;ex:Image&quot;</text>
</a>
</g>
</g>
<!-- Image -->
<g id="node7" class="node"><title>Image</title>
<path fill="lemonchiffon" stroke="black" d="M430.667,-351.5C430.667,-351.5 352.333,-351.5 352.333,-351.5 349.167,-351.5 346,-348.333 346,-345.167 346,-345.167 346,-338.833 346,-338.833 346,-335.667 349.167,-332.5 352.333,-332.5 352.333,-332.5 430.667,-332.5 430.667,-332.5 433.833,-332.5 437,-335.667 437,-338.833 437,-338.833 437,-345.167 437,-345.167 437,-348.333 433.833,-351.5 430.667,-351.5"/>
<text text-anchor="middle" x="391.5" y="-339.5" font-family="Times" font-size="10.00">Image^^xsd:string</text>
</g>
<!-- http://example.com/ns#Image&#45;&gt;Image -->
<g id="edge13" class="edge"><title>http://example.com/ns#Image&#45;&gt;Image</title>
<path fill="none" stroke="black" d="M260.413,-342C283.781,-342 311.832,-342 335.894,-342"/>
<polygon fill="black" stroke="black" points="335.937,-345.5 345.936,-342 335.936,-338.5 335.937,-345.5"/>
<text text-anchor="middle" x="298" y="-345" font-family="Arial" font-size="10.00">rdfs:label</text>
</g>
<!-- DOT syntax -->
<g id="node2" class="node"><title>DOT syntax</title>
<path fill="lemonchiffon" stroke="black" d="M443.167,-298.5C443.167,-298.5 339.833,-298.5 339.833,-298.5 336.667,-298.5 333.5,-295.333 333.5,-292.167 333.5,-292.167 333.5,-285.833 333.5,-285.833 333.5,-282.667 336.667,-279.5 339.833,-279.5 339.833,-279.5 443.167,-279.5 443.167,-279.5 446.333,-279.5 449.5,-282.667 449.5,-285.833 449.5,-285.833 449.5,-292.167 449.5,-292.167 449.5,-295.333 446.333,-298.5 443.167,-298.5"/>
<text text-anchor="middle" x="391.5" y="-286.5" font-family="Times" font-size="10.00">DOT syntax^^xsd:string</text>
</g>
<!-- http://example.com/ns#Parser -->
<g id="node3" class="node"><title>http://example.com/ns#Parser</title>
<g id="a_node3"><a xlink:href="http://example.com/ns#Parser" xlink:title="ex:Process
&quot;ex:Parser&quot;">
<polygon fill="lightskyblue" stroke="black" points="79,-244 13,-244 13,-214 79,-214 79,-244"/>
<text text-anchor="middle" x="46" y="-232" font-family="Arial" font-size="10.00">ex:Process</text>
<text text-anchor="middle" x="46" y="-221" font-family="Arial" font-size="10.00">&quot;ex:Parser&quot;</text>
</a>
</g>
</g>
<!-- http://example.com/ns#Dot -->
<g id="node6" class="node"><title>http://example.com/ns#Dot</title>
<g id="a_node6"><a xlink:href="http://example.com/ns#Dot" xlink:title="ex:Data, ex:Output
&quot;ex:Dot&quot;">
<polygon fill="lightskyblue" stroke="black" points="260,-304 161,-304 161,-274 260,-274 260,-304"/>
<text text-anchor="middle" x="210.5" y="-292" font-family="Arial" font-size="10.00">ex:Data, ex:Output</text>
<text text-anchor="middle" x="210.5" y="-281" font-family="Arial" font-size="10.00">&quot;ex:Dot&quot;</text>
</a>
</g>
</g>
<!-- http://example.com/ns#Parser&#45;&gt;http://example.com/ns#Dot -->
<g id="edge14" class="edge"><title>http://example.com/ns#Parser&#45;&gt;http://example.com/ns#Dot</title>
<path fill="none" stroke="black" d="M79.1048,-240.854C102.006,-249.31 133.251,-260.847 159.415,-270.507"/>
<polygon fill="black" stroke="black" points="158.206,-273.791 168.799,-273.972 160.63,-267.225 158.206,-273.791"/>
<text text-anchor="middle" x="123" y="-268" font-family="Arial" font-size="10.00">ex:out</text>
</g>
<!-- http://example.com/ns#RDFVizlerRDF -->
<g id="node8" class="node"><title>http://example.com/ns#RDFVizlerRDF</title>
<g id="a_node8"><a xlink:href="http://example.com/ns#RDFVizlerRDF" xlink:title="ex:Data, ex:Output
&quot;ex:RDFVizlerRDF&quot;">
<polygon fill="lightskyblue" stroke="black" points="261,-186 160,-186 160,-156 261,-156 261,-186"/>
<text text-anchor="middle" x="210.5" y="-174" font-family="Arial" font-size="10.00">ex:Data, ex:Output</text>
<text text-anchor="middle" x="210.5" y="-163" font-family="Arial" font-size="10.00">&quot;ex:RDFVizlerRDF&quot;</text>
</a>
</g>
</g>
<!-- http://example.com/ns#Parser&#45;&gt;http://example.com/ns#RDFVizlerRDF -->
<g id="edge11" class="edge"><title>http://example.com/ns#Parser&#45;&gt;http://example.com/ns#RDFVizlerRDF</title>
<path fill="none" stroke="black" d="M79.1048,-217.541C101.495,-209.549 131.862,-198.711 157.657,-189.504"/>
<polygon fill="black" stroke="black" points="159.052,-192.722 167.294,-186.064 156.699,-186.13 159.052,-192.722"/>
<text text-anchor="middle" x="123" y="-212" font-family="Arial" font-size="10.00">ex:in</text>
</g>
<!-- RDFVizler&#39;s
RDF to Dot
parser -->
<g id="node15" class="node"><title>RDFVizler&#39;s
RDF to Dot
parser</title>
<path fill="lemonchiffon" stroke="black" d="M243.5,-249.5C243.5,-249.5 177.5,-249.5 177.5,-249.5 171.5,-249.5 165.5,-243.5 165.5,-237.5 165.5,-237.5 165.5,-220.5 165.5,-220.5 165.5,-214.5 171.5,-208.5 177.5,-208.5 177.5,-208.5 243.5,-208.5 243.5,-208.5 249.5,-208.5 255.5,-214.5 255.5,-220.5 255.5,-220.5 255.5,-237.5 255.5,-237.5 255.5,-243.5 249.5,-249.5 243.5,-249.5"/>
<text text-anchor="middle" x="210.5" y="-237.5" font-family="Times" font-size="10.00">RDFVizler&#39;s</text>
<text text-anchor="middle" x="210.5" y="-226.5" font-family="Times" font-size="10.00">RDF to Dot</text>
<text text-anchor="middle" x="210.5" y="-215.5" font-family="Times" font-size="10.00">parser^^xsd:string</text>
</g>
<!-- http://example.com/ns#Parser&#45;&gt;RDFVizler&#39;s
RDF to Dot
parser -->
<g id="edge10" class="edge"><title>http://example.com/ns#Parser&#45;&gt;RDFVizler&#39;s
RDF to Dot
parser</title>
<path fill="none" stroke="black" d="M79.1048,-229C100.81,-229 130.011,-229 155.277,-229"/>
<polygon fill="black" stroke="black" points="155.467,-232.5 165.467,-229 155.467,-225.5 155.467,-232.5"/>
<text text-anchor="middle" x="123" y="-232" font-family="Arial" font-size="10.00">rdfs:label</text>
</g>
<!-- RDFVizler
saturated RDF -->
<g id="node4" class="node"><title>RDFVizler
saturated RDF</title>
<path fill="lemonchiffon" stroke="black" d="M444,-186C444,-186 339,-186 339,-186 334,-186 329,-181 329,-176 329,-176 329,-166 329,-166 329,-161 334,-156 339,-156 339,-156 444,-156 444,-156 449,-156 454,-161 454,-166 454,-166 454,-176 454,-176 454,-181 449,-186 444,-186"/>
<text text-anchor="middle" x="391.5" y="-174" font-family="Times" font-size="10.00">RDFVizler</text>
<text text-anchor="middle" x="391.5" y="-163" font-family="Times" font-size="10.00">saturated RDF^^xsd:string</text>
</g>
<!-- http://example.com/ns#Rules -->
<g id="node5" class="node"><title>http://example.com/ns#Rules</title>
<g id="a_node5"><a xlink:href="http://example.com/ns#Rules" xlink:title="ex:Data, ex:Input
&quot;ex:Rules&quot;">
<polygon fill="lightskyblue" stroke="black" points="256,-134 165,-134 165,-104 256,-104 256,-134"/>
<text text-anchor="middle" x="210.5" y="-122" font-family="Arial" font-size="10.00">ex:Data, ex:Input</text>
<text text-anchor="middle" x="210.5" y="-111" font-family="Arial" font-size="10.00">&quot;ex:Rules&quot;</text>
</a>
</g>
</g>
<!-- Jena Rules -->
<g id="node11" class="node"><title>Jena Rules</title>
<path fill="lemonchiffon" stroke="black" d="M440.167,-128.5C440.167,-128.5 342.833,-128.5 342.833,-128.5 339.667,-128.5 336.5,-125.333 336.5,-122.167 336.5,-122.167 336.5,-115.833 336.5,-115.833 336.5,-112.667 339.667,-109.5 342.833,-109.5 342.833,-109.5 440.167,-109.5 440.167,-109.5 443.333,-109.5 446.5,-112.667 446.5,-115.833 446.5,-115.833 446.5,-122.167 446.5,-122.167 446.5,-125.333 443.333,-128.5 440.167,-128.5"/>
<text text-anchor="middle" x="391.5" y="-116.5" font-family="Times" font-size="10.00">Jena Rules^^xsd:string</text>
</g>
<!-- http://example.com/ns#Rules&#45;&gt;Jena Rules -->
<g id="edge8" class="edge"><title>http://example.com/ns#Rules&#45;&gt;Jena Rules</title>
<path fill="none" stroke="black" d="M256.208,-119C277.405,-119 303.12,-119 326.351,-119"/>
<polygon fill="black" stroke="black" points="326.478,-122.5 336.478,-119 326.478,-115.5 326.478,-122.5"/>
<text text-anchor="middle" x="298" y="-122" font-family="Arial" font-size="10.00">rdfs:label</text>
</g>
<!-- http://example.com/ns#Dot&#45;&gt;DOT syntax -->
<g id="edge4" class="edge"><title>http://example.com/ns#Dot&#45;&gt;DOT syntax</title>
<path fill="none" stroke="black" d="M260.413,-289C279.805,-289 302.423,-289 323.309,-289"/>
<polygon fill="black" stroke="black" points="323.402,-292.5 333.402,-289 323.402,-285.5 323.402,-292.5"/>
<text text-anchor="middle" x="298" y="-292" font-family="Arial" font-size="10.00">rdfs:label</text>
</g>
<!-- http://example.com/ns#RDFVizlerRDF&#45;&gt;RDFVizler
saturated RDF -->
<g id="edge7" class="edge"><title>http://example.com/ns#RDFVizlerRDF&#45;&gt;RDFVizler
saturated RDF</title>
<path fill="none" stroke="black" d="M261.361,-171C279.074,-171 299.383,-171 318.57,-171"/>
<polygon fill="black" stroke="black" points="318.785,-174.5 328.785,-171 318.785,-167.5 318.785,-174.5"/>
<text text-anchor="middle" x="298" y="-174" font-family="Arial" font-size="10.00">rdfs:label</text>
</g>
<!-- http://example.com/ns#RulesEngine -->
<g id="node9" class="node"><title>http://example.com/ns#RulesEngine</title>
<g id="a_node9"><a xlink:href="http://example.com/ns#RulesEngine" xlink:title="ex:Process
&quot;ex:RulesEngine&quot;">
<polygon fill="lightskyblue" stroke="black" points="92,-101 0,-101 0,-71 92,-71 92,-101"/>
<text text-anchor="middle" x="46" y="-89" font-family="Arial" font-size="10.00">ex:Process</text>
<text text-anchor="middle" x="46" y="-78" font-family="Arial" font-size="10.00">&quot;ex:RulesEngine&quot;</text>
</a>
</g>
</g>
<!-- http://example.com/ns#RulesEngine&#45;&gt;http://example.com/ns#Rules -->
<g id="edge2" class="edge"><title>http://example.com/ns#RulesEngine&#45;&gt;http://example.com/ns#Rules</title>
<path fill="none" stroke="black" d="M92.2653,-95.1923C111.627,-99.1242 134.405,-103.75 154.708,-107.873"/>
<polygon fill="black" stroke="black" points="154.262,-111.354 164.759,-109.914 155.655,-104.494 154.262,-111.354"/>
<text text-anchor="middle" x="123" y="-109" font-family="Arial" font-size="10.00">ex:in</text>
</g>
<!-- http://example.com/ns#RulesEngine&#45;&gt;http://example.com/ns#RDFVizlerRDF -->
<g id="edge6" class="edge"><title>http://example.com/ns#RulesEngine&#45;&gt;http://example.com/ns#RDFVizlerRDF</title>
<path fill="none" stroke="black" d="M70.7044,-101.039C80.5737,-107.131 92.2242,-114.103 103,-120 125.145,-132.118 131.236,-134.09 154,-145 158.561,-147.186 163.341,-149.456 168.102,-151.705"/>
<polygon fill="black" stroke="black" points="166.634,-154.882 177.172,-155.973 169.614,-148.548 166.634,-154.882"/>
<text text-anchor="middle" x="123" y="-143" font-family="Arial" font-size="10.00">ex:out</text>
</g>
<!-- Jena Rules
application -->
<g id="node10" class="node"><title>Jena Rules
application</title>
<path fill="lemonchiffon" stroke="black" d="M257,-82C257,-82 164,-82 164,-82 159,-82 154,-77 154,-72 154,-72 154,-62 154,-62 154,-57 159,-52 164,-52 164,-52 257,-52 257,-52 262,-52 267,-57 267,-62 267,-62 267,-72 267,-72 267,-77 262,-82 257,-82"/>
<text text-anchor="middle" x="210.5" y="-70" font-family="Times" font-size="10.00">Jena Rules</text>
<text text-anchor="middle" x="210.5" y="-59" font-family="Times" font-size="10.00">application^^xsd:string</text>
</g>
<!-- http://example.com/ns#RulesEngine&#45;&gt;Jena Rules
application -->
<g id="edge12" class="edge"><title>http://example.com/ns#RulesEngine&#45;&gt;Jena Rules
application</title>
<path fill="none" stroke="black" d="M89.1716,-70.9669C93.7913,-69.7645 98.4634,-68.733 103,-68 116.091,-65.8847 130.206,-64.8762 143.744,-64.5202"/>
<polygon fill="black" stroke="black" points="144.01,-68.0167 153.957,-64.3677 143.905,-61.0175 144.01,-68.0167"/>
<text text-anchor="middle" x="123" y="-71" font-family="Arial" font-size="10.00">rdfs:label</text>
</g>
<!-- http://example.com/ns#RDF -->
<g id="node13" class="node"><title>http://example.com/ns#RDF</title>
<g id="a_node13"><a xlink:href="http://example.com/ns#RDF" xlink:title="ex:Data, ex:Input
&quot;ex:RDF&quot;">
<polygon fill="lightskyblue" stroke="black" points="256,-30 165,-30 165,-3.55271e-15 256,-3.55271e-15 256,-30"/>
<text text-anchor="middle" x="210.5" y="-18" font-family="Arial" font-size="10.00">ex:Data, ex:Input</text>
<text text-anchor="middle" x="210.5" y="-7" font-family="Arial" font-size="10.00">&quot;ex:RDF&quot;</text>
</a>
</g>
</g>
<!-- http://example.com/ns#RulesEngine&#45;&gt;http://example.com/ns#RDF -->
<g id="edge15" class="edge"><title>http://example.com/ns#RulesEngine&#45;&gt;http://example.com/ns#RDF</title>
<path fill="none" stroke="black" d="M66.9427,-70.8796C77.2944,-63.5446 90.3873,-55.0374 103,-49 119.391,-41.1542 138.037,-34.4995 155.097,-29.2142"/>
<polygon fill="black" stroke="black" points="156.358,-32.4899 164.929,-26.2618 154.345,-25.7856 156.358,-32.4899"/>
<text text-anchor="middle" x="123" y="-52" font-family="Arial" font-size="10.00">ex:in</text>
</g>
<!-- Graphviz
software -->
<g id="node12" class="node"><title>Graphviz
software</title>
<path fill="lemonchiffon" stroke="black" d="M251,-409C251,-409 170,-409 170,-409 165,-409 160,-404 160,-399 160,-399 160,-389 160,-389 160,-384 165,-379 170,-379 170,-379 251,-379 251,-379 256,-379 261,-384 261,-389 261,-389 261,-399 261,-399 261,-404 256,-409 251,-409"/>
<text text-anchor="middle" x="210.5" y="-397" font-family="Times" font-size="10.00">Graphviz</text>
<text text-anchor="middle" x="210.5" y="-386" font-family="Times" font-size="10.00">software^^xsd:string</text>
</g>
<!-- RDF data -->
<g id="node16" class="node"><title>RDF data</title>
<path fill="lemonchiffon" stroke="black" d="M437.667,-24.5C437.667,-24.5 345.333,-24.5 345.333,-24.5 342.167,-24.5 339,-21.3333 339,-18.1667 339,-18.1667 339,-11.8333 339,-11.8333 339,-8.66667 342.167,-5.5 345.333,-5.5 345.333,-5.5 437.667,-5.5 437.667,-5.5 440.833,-5.5 444,-8.66667 444,-11.8333 444,-11.8333 444,-18.1667 444,-18.1667 444,-21.3333 440.833,-24.5 437.667,-24.5"/>
<text text-anchor="middle" x="391.5" y="-12.5" font-family="Times" font-size="10.00">RDF data^^xsd:string</text>
</g>
<!-- http://example.com/ns#RDF&#45;&gt;RDF data -->
<g id="edge1" class="edge"><title>http://example.com/ns#RDF&#45;&gt;RDF data</title>
<path fill="none" stroke="black" d="M256.208,-15C278.135,-15 304.895,-15 328.74,-15"/>
<polygon fill="black" stroke="black" points="328.758,-18.5001 338.758,-15 328.758,-11.5001 328.758,-18.5001"/>
<text text-anchor="middle" x="298" y="-18" font-family="Arial" font-size="10.00">rdfs:label</text>
</g>
<!-- http://example.com/ns#Graphviz -->
<g id="node14" class="node"><title>http://example.com/ns#Graphviz</title>
<g id="a_node14"><a xlink:href="http://example.com/ns#Graphviz" xlink:title="ex:Process
&quot;ex:Graphviz&quot;">
<polygon fill="lightskyblue" stroke="black" points="83.5,-358 8.5,-358 8.5,-328 83.5,-328 83.5,-358"/>
<text text-anchor="middle" x="46" y="-346" font-family="Arial" font-size="10.00">ex:Process</text>
<text text-anchor="middle" x="46" y="-335" font-family="Arial" font-size="10.00">&quot;ex:Graphviz&quot;</text>
</a>
</g>
</g>
<!-- http://example.com/ns#Graphviz&#45;&gt;http://example.com/ns#Image -->
<g id="edge5" class="edge"><title>http://example.com/ns#Graphviz&#45;&gt;http://example.com/ns#Image</title>
<path fill="none" stroke="black" d="M83.8738,-342.773C103.606,-342.652 128.377,-342.499 150.695,-342.362"/>
<polygon fill="black" stroke="black" points="150.772,-345.862 160.75,-342.3 150.728,-338.862 150.772,-345.862"/>
<text text-anchor="middle" x="123" y="-346" font-family="Arial" font-size="10.00">ex:out</text>
</g>
<!-- http://example.com/ns#Graphviz&#45;&gt;http://example.com/ns#Dot -->
<g id="edge3" class="edge"><title>http://example.com/ns#Graphviz&#45;&gt;http://example.com/ns#Dot</title>
<path fill="none" stroke="black" d="M83.8738,-330.747C104.686,-323.831 131.101,-315.053 154.333,-307.332"/>
<polygon fill="black" stroke="black" points="155.683,-310.572 164.069,-304.097 153.476,-303.929 155.683,-310.572"/>
<text text-anchor="middle" x="123" y="-327" font-family="Arial" font-size="10.00">ex:in</text>
</g>
<!-- http://example.com/ns#Graphviz&#45;&gt;Graphviz
software -->
<g id="edge9" class="edge"><title>http://example.com/ns#Graphviz&#45;&gt;Graphviz
software</title>
<path fill="none" stroke="black" d="M83.8738,-354.573C103.94,-360.87 129.215,-368.803 151.825,-375.899"/>
<polygon fill="black" stroke="black" points="151.072,-379.331 161.661,-378.986 153.168,-372.652 151.072,-379.331"/>
<text text-anchor="middle" x="123" y="-377" font-family="Arial" font-size="10.00">rdfs:label</text>
</g>
</g>
</svg>

