<?xml version="1.0" encoding="UTF-8" standalone="no"?>
<!DOCTYPE svg PUBLIC "-//W3C//DTD SVG 1.1//EN"
 "http://www.w3.org/Graphics/SVG/1.1/DTD/svg11.dtd">
<!-- Generated by graphviz version 2.38.0 (20140413.2041)
 -->
<!-- Title: urn:temp#graph Pages: 1 -->
<svg width="865pt" height="98pt"
 viewBox="0.00 0.00 865.00 98.00" xmlns="http://www.w3.org/2000/svg" xmlns:xlink="http://www.w3.org/1999/xlink">
<g id="graph0" class="graph" transform="scale(1 1) rotate(0) translate(4 94)">
<title>urn:temp#graph</title>
<polygon fill="white" stroke="none" points="-4,4 -4,-94 861,-94 861,4 -4,4"/>
<!-- http://example.com/ns#Parser -->
<g id="node1" class="node"><title>http://example.com/ns#Parser</title>
<polygon fill="lightgreen" stroke="black" points="451,-86 383,-45 451,-4 519,-45 451,-86"/>
<text text-anchor="middle" x="451" y="-53.5" font-family="Arial" font-size="10.00">RDFVizler&#39;s</text>
<text text-anchor="middle" x="451" y="-42.5" font-family="Arial" font-size="10.00">RDF to Dot</text>
<text text-anchor="middle" x="451" y="-31.5" font-family="Arial" font-size="10.00">parser</text>
</g>
<!-- http://example.com/ns#Dot -->
<g id="node4" class="node"><title>http://example.com/ns#Dot</title>
<polygon fill="lightskyblue" stroke="black" points="623,-63 555,-63 555,-27 623,-27 623,-63"/>
<text text-anchor="middle" x="589" y="-42.5" font-family="Arial" font-size="10.00">DOT syntax</text>
</g>
<!-- http://example.com/ns#Parser&#45;&gt;http://example.com/ns#Dot -->
<g id="edge7" class="edge"><title>http://example.com/ns#Parser&#45;&gt;http://example.com/ns#Dot</title>
<path fill="none" stroke="black" d="M519.203,-45C527.955,-45 536.725,-45 544.932,-45"/>
<polygon fill="black" stroke="black" points="544.983,-48.5001 554.983,-45 544.983,-41.5001 544.983,-48.5001"/>
</g>
<!-- http://example.com/ns#RulesEngine -->
<g id="node2" class="node"><title>http://example.com/ns#RulesEngine</title>
<polygon fill="lightgreen" stroke="black" points="166,-75 101,-45 166,-15 231,-45 166,-75"/>
<text text-anchor="middle" x="166" y="-48" font-family="Arial" font-size="10.00">Jena Rules</text>
<text text-anchor="middle" x="166" y="-37" font-family="Arial" font-size="10.00">application</text>
</g>
<!-- http://example.com/ns#RDFVizlerRDF -->
<g id="node7" class="node"><title>http://example.com/ns#RDFVizlerRDF</title>
<polygon fill="lightskyblue" stroke="black" points="347,-63 267,-63 267,-27 347,-27 347,-63"/>
<text text-anchor="middle" x="307" y="-48" font-family="Arial" font-size="10.00">RDFVizler</text>
<text text-anchor="middle" x="307" y="-37" font-family="Arial" font-size="10.00">saturated RDF</text>
</g>
<!-- http://example.com/ns#RulesEngine&#45;&gt;http://example.com/ns#RDFVizlerRDF -->
<g id="edge3" class="edge"><title>http://example.com/ns#RulesEngine&#45;&gt;http://example.com/ns#RDFVizlerRDF</title>
<path fill="none" stroke="black" d="M231.211,-45C239.713,-45 248.322,-45 256.524,-45"/>
<polygon fill="black" stroke="black" points="256.657,-48.5001 266.657,-45 256.657,-41.5001 256.657,-48.5001"/>
</g>
<!-- http://example.com/ns#Graphviz -->
<g id="node3" class="node"><title>http://example.com/ns#Graphviz</title>
<polygon fill="lightgreen" stroke="black" points="713,-75 659,-45 713,-15 767,-45 713,-75"/>
<text text-anchor="middle" x="713" y="-48" font-family="Arial" font-size="10.00">Graphviz</text>
<text text-anchor="middle" x="713" y="-37" font-family="Arial" font-size="10.00">software</text>
</g>
<!-- http://example.com/ns#Image -->
<g id="node6" class="node"><title>http://example.com/ns#Image</title>
<polygon fill="lightskyblue" stroke="black" points="857,-63 803,-63 803,-27 857,-27 857,-63"/>
<text text-anchor="middle" x="830" y="-42.5" font-family="Arial" font-size="10.00">Image</text>
</g>
<!-- http://example.com/ns#Graphviz&#45;&gt;http://example.com/ns#Image -->
<g id="edge4" class="edge"><title>http://example.com/ns#Graphviz&#45;&gt;http://example.com/ns#Image</title>
<path fill="none" stroke="black" d="M767.124,-45C775.717,-45 784.442,-45 792.523,-45"/>
<polygon fill="black" stroke="black" points="792.712,-48.5001 802.712,-45 792.712,-41.5001 792.712,-48.5001"/>
</g>
<!-- http://example.com/ns#Dot&#45;&gt;http://example.com/ns#Graphviz -->
<g id="edge2" class="edge"><title>http://example.com/ns#Dot&#45;&gt;http://example.com/ns#Graphviz</title>
<path fill="none" stroke="black" d="M623.015,-45C631.013,-45 639.831,-45 648.714,-45"/>
<polygon fill="black" stroke="black" points="648.73,-48.5001 658.73,-45 648.73,-41.5001 648.73,-48.5001"/>
</g>
<!-- http://example.com/ns#RDF -->
<g id="node5" class="node"><title>http://example.com/ns#RDF</title>
<polygon fill="pink" stroke="black" points="61.5,-90 3.5,-90 3.5,-54 61.5,-54 61.5,-90"/>
<text text-anchor="middle" x="32.5" y="-69.5" font-family="Arial" font-size="10.00">RDF data</text>
</g>
<!-- http://example.com/ns#RDF&#45;&gt;http://example.com/ns#RulesEngine -->
<g id="edge5" class="edge"><title>http://example.com/ns#RDF&#45;&gt;http://example.com/ns#RulesEngine</title>
<path fill="none" stroke="black" d="M61.71,-66.2078C75.8966,-63.295 93.5897,-59.6622 110.302,-56.2308"/>
<polygon fill="black" stroke="black" points="111.449,-59.5683 120.541,-54.1285 110.041,-52.7113 111.449,-59.5683"/>
</g>
<!-- http://example.com/ns#RDFVizlerRDF&#45;&gt;http://example.com/ns#Parser -->
<g id="edge1" class="edge"><title>http://example.com/ns#RDFVizlerRDF&#45;&gt;http://example.com/ns#Parser</title>
<path fill="none" stroke="black" d="M347.178,-45C355.23,-45 363.971,-45 372.84,-45"/>
<polygon fill="black" stroke="black" points="372.88,-48.5001 382.88,-45 372.88,-41.5001 372.88,-48.5001"/>
</g>
<!-- http://example.com/ns#Rules -->
<g id="node8" class="node"><title>http://example.com/ns#Rules</title>
<polygon fill="pink" stroke="black" points="65,-36 0,-36 0,-0 65,-0 65,-36"/>
<text text-anchor="middle" x="32.5" y="-15.5" font-family="Arial" font-size="10.00">Jena Rules</text>
</g>
<!-- http://example.com/ns#Rules&#45;&gt;http://example.com/ns#RulesEngine -->
<g id="edge6" class="edge"><title>http://example.com/ns#Rules&#45;&gt;http://example.com/ns#RulesEngine</title>
<path fill="none" stroke="black" d="M65.3325,-24.5359C78.9254,-27.3269 95.1817,-30.6647 110.583,-33.8269"/>
<polygon fill="black" stroke="black" points="110.044,-37.2891 120.543,-35.872 111.451,-30.4321 110.044,-37.2891"/>
</g>
</g>
</svg>

