<?xml version="1.0" encoding="UTF-8" standalone="no"?>
<!DOCTYPE svg PUBLIC "-//W3C//DTD SVG 1.1//EN"
 "http://www.w3.org/Graphics/SVG/1.1/DTD/svg11.dtd">
<!-- Generated by graphviz version 14.1.3 (20260303.0454)
 -->
<!-- Title: urn:temp#graph Pages: 1 -->
<svg width="873px" height="98px"
 viewBox="0.00 0.00 873.00 98.00" xmlns="http://www.w3.org/2000/svg" xmlns:xlink="http://www.w3.org/1999/xlink">
<g id="graph0" class="graph" transform="scale(1.0 1.0) rotate(0.0) translate(4.0 94.0)">
<title>urn:temp#graph</title>
<polygon fill="white" stroke="none" points="-4,4 -4,-94 868.75,-94 868.75,4 -4,4"/>
<!-- http://example.com/ns#Image -->
<g id="node1" class="node">
<title>http://example.com/ns#Image</title>
<polygon fill="lightskyblue" stroke="black" points="864.75,-63 810.75,-63 810.75,-27 864.75,-27 864.75,-63"/>
<text xml:space="preserve" text-anchor="middle" x="837.75" y="-41.5" font-family="Arial" font-size="10.00">Image</text>
</g>
<!-- http://example.com/ns#Graphviz -->
<g id="node2" class="node">
<title>http://example.com/ns#Graphviz</title>
<polygon fill="lightgreen" stroke="black" points="719.75,-77 664.75,-45 719.75,-13 774.75,-45 719.75,-77"/>
<text xml:space="preserve" text-anchor="middle" x="719.75" y="-47.5" font-family="Arial" font-size="10.00">Graphviz</text>
<text xml:space="preserve" text-anchor="middle" x="719.75" y="-35.5" font-family="Arial" font-size="10.00">software</text>
</g>
<!-- http://example.com/ns#Graphviz&#45;&gt;http://example.com/ns#Image -->
<g id="edge1" class="edge">
<title>http://example.com/ns#Graphviz&#45;&gt;http://example.com/ns#Image</title>
<path fill="none" stroke="black" d="M775.69,-45C783.51,-45 791.41,-45 798.81,-45"/>
<polygon fill="black" stroke="black" points="798.8,-48.5 808.8,-45 798.8,-41.5 798.8,-48.5"/>
</g>
<!-- http://example.com/ns#Dot -->
<g id="node3" class="node">
<title>http://example.com/ns#Dot</title>
<polygon fill="lightskyblue" stroke="black" points="628.75,-63 559.5,-63 559.5,-27 628.75,-27 628.75,-63"/>
<text xml:space="preserve" text-anchor="middle" x="594.12" y="-41.5" font-family="Arial" font-size="10.00">DOT syntax</text>
</g>
<!-- http://example.com/ns#Dot&#45;&gt;http://example.com/ns#Graphviz -->
<g id="edge2" class="edge">
<title>http://example.com/ns#Dot&#45;&gt;http://example.com/ns#Graphviz</title>
<path fill="none" stroke="black" d="M629.23,-45C636.52,-45 644.45,-45 652.49,-45"/>
<polygon fill="black" stroke="black" points="652.34,-48.5 662.34,-45 652.34,-41.5 652.34,-48.5"/>
</g>
<!-- http://example.com/ns#Parser -->
<g id="node4" class="node">
<title>http://example.com/ns#Parser</title>
<polygon fill="lightgreen" stroke="black" points="454.25,-89 385,-45 454.25,-1 523.5,-45 454.25,-89"/>
<text xml:space="preserve" text-anchor="middle" x="454.25" y="-53.5" font-family="Arial" font-size="10.00">RDFVizler&#39;s</text>
<text xml:space="preserve" text-anchor="middle" x="454.25" y="-41.5" font-family="Arial" font-size="10.00">RDF to Dot</text>
<text xml:space="preserve" text-anchor="middle" x="454.25" y="-29.5" font-family="Arial" font-size="10.00">parser</text>
</g>
<!-- http://example.com/ns#Parser&#45;&gt;http://example.com/ns#Dot -->
<g id="edge3" class="edge">
<title>http://example.com/ns#Parser&#45;&gt;http://example.com/ns#Dot</title>
<path fill="none" stroke="black" d="M524.19,-45C532.14,-45 540.09,-45 547.62,-45"/>
<polygon fill="black" stroke="black" points="547.53,-48.5 557.53,-45 547.53,-41.5 547.53,-48.5"/>
</g>
<!-- http://example.com/ns#RDF -->
<g id="node5" class="node">
<title>http://example.com/ns#RDF</title>
<polygon fill="pink" stroke="black" points="62.12,-90 3.38,-90 3.38,-54 62.12,-54 62.12,-90"/>
<text xml:space="preserve" text-anchor="middle" x="32.75" y="-68.5" font-family="Arial" font-size="10.00">RDF data</text>
</g>
<!-- http://example.com/ns#RulesEngine -->
<g id="node6" class="node">
<title>http://example.com/ns#RulesEngine</title>
<polygon fill="lightgreen" stroke="black" points="167,-77 101.5,-45 167,-13 232.5,-45 167,-77"/>
<text xml:space="preserve" text-anchor="middle" x="167" y="-47.5" font-family="Arial" font-size="10.00">Jena Rules</text>
<text xml:space="preserve" text-anchor="middle" x="167" y="-35.5" font-family="Arial" font-size="10.00">application</text>
</g>
<!-- http://example.com/ns#RDF&#45;&gt;http://example.com/ns#RulesEngine -->
<g id="edge5" class="edge">
<title>http://example.com/ns#RDF&#45;&gt;http://example.com/ns#RulesEngine</title>
<path fill="none" stroke="black" d="M62.45,-66.14C76.09,-63.36 92.9,-59.92 108.98,-56.64"/>
<polygon fill="black" stroke="black" points="109.36,-60.14 118.46,-54.71 107.96,-53.28 109.36,-60.14"/>
</g>
<!-- http://example.com/ns#RDFVizlerRDF -->
<g id="node8" class="node">
<title>http://example.com/ns#RDFVizlerRDF</title>
<polygon fill="lightskyblue" stroke="black" points="349,-63 268.5,-63 268.5,-27 349,-27 349,-63"/>
<text xml:space="preserve" text-anchor="middle" x="308.75" y="-47.5" font-family="Arial" font-size="10.00">RDFVizler</text>
<text xml:space="preserve" text-anchor="middle" x="308.75" y="-35.5" font-family="Arial" font-size="10.00">saturated RDF</text>
</g>
<!-- http://example.com/ns#RulesEngine&#45;&gt;http://example.com/ns#RDFVizlerRDF -->
<g id="edge7" class="edge">
<title>http://example.com/ns#RulesEngine&#45;&gt;http://example.com/ns#RDFVizlerRDF</title>
<path fill="none" stroke="black" d="M233.37,-45C241.3,-45 249.3,-45 256.97,-45"/>
<polygon fill="black" stroke="black" points="256.79,-48.5 266.79,-45 256.79,-41.5 256.79,-48.5"/>
</g>
<!-- http://example.com/ns#Rules -->
<g id="node7" class="node">
<title>http://example.com/ns#Rules</title>
<polygon fill="pink" stroke="black" points="65.5,-36 0,-36 0,0 65.5,0 65.5,-36"/>
<text xml:space="preserve" text-anchor="middle" x="32.75" y="-14.5" font-family="Arial" font-size="10.00">Jena Rules</text>
</g>
<!-- http://example.com/ns#Rules&#45;&gt;http://example.com/ns#RulesEngine -->
<g id="edge6" class="edge">
<title>http://example.com/ns#Rules&#45;&gt;http://example.com/ns#RulesEngine</title>
<path fill="none" stroke="black" d="M65.76,-24.54C78.68,-27.17 93.98,-30.3 108.7,-33.3"/>
<polygon fill="black" stroke="black" points="107.8,-36.69 118.3,-35.26 109.2,-29.83 107.8,-36.69"/>
</g>
<!-- http://example.com/ns#RDFVizlerRDF&#45;&gt;http://example.com/ns#Parser -->
<g id="edge4" class="edge">
<title>http://example.com/ns#RDFVizlerRDF&#45;&gt;http://example.com/ns#Parser</title>
<path fill="none" stroke="black" d="M349.34,-45C356.81,-45 364.87,-45 373.08,-45"/>
<polygon fill="black" stroke="black" points="372.81,-48.5 382.81,-45 372.81,-41.5 372.81,-48.5"/>
</g>
</g>
</svg>

