<?xml version="1.0" encoding="UTF-8" standalone="no"?>
<!DOCTYPE svg PUBLIC "-//W3C//DTD SVG 1.1//EN"
 "http://www.w3.org/Graphics/SVG/1.1/DTD/svg11.dtd">
<!-- Generated by graphviz version 14.1.3 (20260303.0454)
 -->
<!-- Title: http://example.com/ns#root Pages: 1 -->
<svg width="539px" height="118px"
 viewBox="0.00 0.00 539.00 118.00" xmlns="http://www.w3.org/2000/svg" xmlns:xlink="http://www.w3.org/1999/xlink">
<g id="graph0" class="graph" transform="scale(1.0 1.0) rotate(0.0) translate(4.0 114.0)">
<title>http://example.com/ns#root</title>
<polygon fill="white" stroke="none" points="-4,4 -4,-114 534.88,-114 534.88,4 -4,4"/>
<g id="clust1" class="cluster">
<title>clusterG1</title>
<polygon fill="none" stroke="black" points="173.85,-8 173.85,-60 522.88,-60 522.88,-8 173.85,-8"/>
</g>
<!-- http://example.com/ns#n3 -->
<g id="node1" class="node">
<title>http://example.com/ns#n3</title>
<ellipse fill="none" stroke="black" cx="256.11" cy="-92" rx="72.93" ry="18"/>
<text xml:space="preserve" text-anchor="middle" x="256.11" y="-88.12" font-family="Times,serif" font-size="10.00">http://example.com/ns#n3</text>
</g>
<!-- http://example.com/ns#n2 -->
<g id="node2" class="node">
<title>http://example.com/ns#n2</title>
<ellipse fill="none" stroke="black" cx="72.93" cy="-92" rx="72.93" ry="18"/>
<text xml:space="preserve" text-anchor="middle" x="72.93" y="-88.12" font-family="Times,serif" font-size="10.00">http://example.com/ns#n2</text>
</g>
<!-- http://example.com/ns#n2&#45;&gt;http://example.com/ns#n3 -->
<g id="edge2" class="edge">
<title>http://example.com/ns#n2&#45;&gt;http://example.com/ns#n3</title>
<path fill="none" stroke="black" stroke-dasharray="5,2" d="M146.32,-92C154.58,-92 163.06,-92 171.46,-92"/>
<polygon fill="black" stroke="black" points="171.32,-95.5 181.32,-92 171.32,-88.5 171.32,-95.5"/>
</g>
<!-- asdf -->
<g id="node3" class="node">
<title>asdf</title>
<polygon fill="blue" stroke="black" points="99.93,-52 45.93,-52 45.93,-16 99.93,-16 99.93,-52"/>
<text xml:space="preserve" text-anchor="middle" x="72.93" y="-30.12" font-family="Times,serif" font-size="10.00">asdf</text>
</g>
<!-- asdf&#45;&gt;http://example.com/ns#n3 -->
<g id="edge1" class="edge">
<title>asdf&#45;&gt;http://example.com/ns#n3</title>
<path fill="none" stroke="red" stroke-dasharray="5,2" d="M100.27,-42.43C126.11,-50.7 166.31,-63.57 199.27,-74.13"/>
<polygon fill="red" stroke="red" points="198.11,-77.43 208.7,-77.14 200.24,-70.76 198.11,-77.43"/>
</g>
<!-- http://example.com/ns#m1 -->
<g id="node4" class="node">
<title>http://example.com/ns#m1</title>
<ellipse fill="none" stroke="black" cx="256.11" cy="-34" rx="74.26" ry="18"/>
<text xml:space="preserve" text-anchor="middle" x="256.11" y="-30.12" font-family="Times,serif" font-size="10.00">http://example.com/ns#m1</text>
</g>
<!-- asdf&#45;&gt;http://example.com/ns#m1 -->
<g id="edge3" class="edge">
<title>asdf&#45;&gt;http://example.com/ns#m1</title>
<path fill="none" stroke="black" stroke-dasharray="1,5" d="M100.27,-34C118.91,-34 145.02,-34 170.5,-34"/>
<polygon fill="black" stroke="black" points="170.23,-37.5 180.23,-34 170.23,-30.5 170.23,-37.5"/>
</g>
<!-- http://example.com/ns#m2 -->
<g id="node5" class="node">
<title>http://example.com/ns#m2</title>
<ellipse fill="none" stroke="black" cx="440.63" cy="-34" rx="74.26" ry="18"/>
<text xml:space="preserve" text-anchor="middle" x="440.63" y="-30.12" font-family="Times,serif" font-size="10.00">http://example.com/ns#m2</text>
</g>
<!-- http://example.com/ns#m1&#45;&gt;http://example.com/ns#m2 -->
<g id="edge4" class="edge">
<title>http://example.com/ns#m1&#45;&gt;http://example.com/ns#m2</title>
<path fill="none" stroke="black" stroke-dasharray="5,2" d="M330.82,-34C338.6,-34 346.55,-34 354.45,-34"/>
<polygon fill="black" stroke="black" points="354.42,-37.5 364.42,-34 354.42,-30.5 354.42,-37.5"/>
</g>
</g>
</svg>

