<?xml version="1.0" encoding="UTF-8" standalone="no"?>
<!DOCTYPE svg PUBLIC "-//W3C//DTD SVG 1.1//EN"
 "http://www.w3.org/Graphics/SVG/1.1/DTD/svg11.dtd">
<!-- Generated by graphviz version 2.38.0 (20140413.2041)
 -->
<!-- Title: http://example.com/ns#root Pages: 1 -->
<svg width="539pt" height="118pt"
 viewBox="0.00 0.00 538.67 118.00" xmlns="http://www.w3.org/2000/svg" xmlns:xlink="http://www.w3.org/1999/xlink">
<g id="graph0" class="graph" transform="scale(1 1) rotate(0) translate(4 114)">
<title>http://example.com/ns#root</title>
<polygon fill="white" stroke="none" points="-4,4 -4,-114 534.675,-114 534.675,4 -4,4"/>
<g id="clust1" class="cluster"><title>clusterG1</title>
<polygon fill="none" stroke="black" points="173.988,-8 173.988,-60 522.675,-60 522.675,-8 173.988,-8"/>
</g>
<!-- http://example.com/ns#n3 -->
<g id="node1" class="node"><title>http://example.com/ns#n3</title>
<ellipse fill="none" stroke="black" cx="256.16" cy="-92" rx="72.9884" ry="18"/>
<text text-anchor="middle" x="256.16" y="-89.5" font-family="Times,serif" font-size="10.00">http://example.com/ns#n3</text>
</g>
<!-- http://example.com/ns#n2 -->
<g id="node2" class="node"><title>http://example.com/ns#n2</title>
<ellipse fill="none" stroke="black" cx="72.9942" cy="-92" rx="72.9884" ry="18"/>
<text text-anchor="middle" x="72.9942" y="-89.5" font-family="Times,serif" font-size="10.00">http://example.com/ns#n2</text>
</g>
<!-- http://example.com/ns#n2&#45;&gt;http://example.com/ns#n3 -->
<g id="edge2" class="edge"><title>http://example.com/ns#n2&#45;&gt;http://example.com/ns#n3</title>
<path fill="none" stroke="black" stroke-dasharray="5,2" d="M146.116,-92C154.935,-92 163.997,-92 172.949,-92"/>
<polygon fill="black" stroke="black" points="172.99,-95.5001 182.99,-92 172.99,-88.5001 172.99,-95.5001"/>
</g>
<!-- asdf -->
<g id="node3" class="node"><title>asdf</title>
<polygon fill="blue" stroke="black" points="99.9942,-52 45.9942,-52 45.9942,-16 99.9942,-16 99.9942,-52"/>
<text text-anchor="middle" x="72.9942" y="-31.5" font-family="Times,serif" font-size="10.00">asdf</text>
</g>
<!-- asdf&#45;&gt;http://example.com/ns#n3 -->
<g id="edge3" class="edge"><title>asdf&#45;&gt;http://example.com/ns#n3</title>
<path fill="none" stroke="red" stroke-dasharray="5,2" d="M100.337,-42.4337C126.687,-50.8694 167.977,-64.0885 201.292,-74.7542"/>
<polygon fill="red" stroke="red" points="200.311,-78.1153 210.902,-77.831 202.446,-71.4486 200.311,-78.1153"/>
</g>
<!-- http://example.com/ns#m1 -->
<g id="node4" class="node"><title>http://example.com/ns#m1</title>
<ellipse fill="none" stroke="black" cx="256.16" cy="-34" rx="74.3435" ry="18"/>
<text text-anchor="middle" x="256.16" y="-31.5" font-family="Times,serif" font-size="10.00">http://example.com/ns#m1</text>
</g>
<!-- asdf&#45;&gt;http://example.com/ns#m1 -->
<g id="edge1" class="edge"><title>asdf&#45;&gt;http://example.com/ns#m1</title>
<path fill="none" stroke="black" stroke-dasharray="1,5" d="M100.337,-34C119.224,-34 145.787,-34 171.587,-34"/>
<polygon fill="black" stroke="black" points="171.801,-37.5001 181.801,-34 171.801,-30.5001 171.801,-37.5001"/>
</g>
<!-- http://example.com/ns#m2 -->
<g id="node5" class="node"><title>http://example.com/ns#m2</title>
<ellipse fill="none" stroke="black" cx="440.503" cy="-34" rx="74.3435" ry="18"/>
<text text-anchor="middle" x="440.503" y="-31.5" font-family="Times,serif" font-size="10.00">http://example.com/ns#m2</text>
</g>
<!-- http://example.com/ns#m1&#45;&gt;http://example.com/ns#m2 -->
<g id="edge4" class="edge"><title>http://example.com/ns#m1&#45;&gt;http://example.com/ns#m2</title>
<path fill="none" stroke="black" stroke-dasharray="5,2" d="M330.538,-34C339.002,-34 347.679,-34 356.262,-34"/>
<polygon fill="black" stroke="black" points="356.276,-37.5001 366.276,-34 356.275,-30.5001 356.276,-37.5001"/>
</g>
</g>
</svg>

